<?xml version="1.0" standalone="no"?>
<!DOCTYPE svg PUBLIC "-//W3C//DTD SVG 20010904//EN"
 "http://www.w3.org/TR/2001/REC-SVG-20010904/DTD/svg10.dtd">
<svg version="1.0" xmlns="http://www.w3.org/2000/svg"
 width="609.000000pt" height="609.000000pt" viewBox="0 0 609.000000 609.000000"
 preserveAspectRatio="xMidYMid meet">
<metadata>
Created by potrace 1.11, written by Peter Selinger 2001-2013
</metadata>
<g transform="translate(0.000000,609.000000) scale(0.100000,-0.100000)"
fill="#000000" stroke="none">
<path d="M2175 3248 c-44 -34 -265 -337 -265 -362 0 -28 32 -59 57 -54 10 2
71 73 135 158 64 85 126 161 137 168 18 12 24 7 80 -67 34 -44 61 -84 61 -89
0 -6 7 -12 15 -16 8 -3 15 -12 15 -21 0 -8 5 -15 10 -15 6 0 13 -7 17 -16 11
-28 86 -104 103 -104 19 0 50 30 50 49 0 7 -13 32 -30 56 -16 24 -30 46 -30
49 0 3 -6 14 -14 23 -8 10 -49 64 -92 121 -42 56 -88 111 -102 122 -35 28
-110 27 -147 -2z"/>
<path d="M154 3240 c-33 -13 -93 -90 -100 -127 -3 -18 -4 -62 -2 -98 3 -52 10
-73 34 -107 49 -70 59 -73 319 -76 127 -2 245 0 263 3 42 8 100 59 123 110 34
74 18 198 -34 253 -47 50 -59 52 -329 51 -139 0 -262 -4 -274 -9z m533 -122
c27 -31 35 -67 22 -111 -17 -63 -36 -67 -289 -67 l-222 0 -29 29 c-43 43 -38
121 10 158 12 9 82 12 252 13 232 0 236 0 256 -22z"/>
<path d="M911 3236 c-9 -11 -11 -61 -9 -175 3 -153 4 -160 27 -185 41 -44 75
-47 394 -44 282 3 299 4 313 22 18 26 18 28 -7 60 l-20 26 -300 0 -299 0 0
133 c0 104 -3 137 -16 155 -18 25 -65 30 -83 8z"/>
<path d="M1732 3238 c-8 -8 -12 -66 -12 -196 0 -164 2 -186 18 -198 26 -20 59
-17 76 8 13 18 16 55 16 191 0 97 -4 177 -10 188 -12 22 -68 27 -88 7z"/>
<path d="M2729 3227 c-22 -14 -39 -38 -48 -64 -13 -37 -13 -45 3 -87 31 -81
30 -80 366 -86 287 -5 295 -6 295 -25 0 -20 -8 -20 -304 -23 -266 -2 -307 -4
-323 -19 -23 -21 -23 -55 0 -76 16 -15 54 -17 321 -17 277 0 305 2 339 19 39
20 72 73 72 116 0 39 -30 90 -64 111 -28 17 -57 19 -316 22 -288 3 -326 8
-286 38 16 11 75 14 316 14 316 0 320 1 320 50 0 50 -2 50 -341 50 -313 0
-316 0 -350 -23z"/>
<path d="M3634 3236 c-53 -23 -104 -117 -104 -190 0 -89 54 -179 123 -205 46
-18 487 -14 530 4 32 13 108 89 104 104 0 3 5 17 12 30 23 42 9 123 -31 184
-57 85 -64 87 -355 87 -186 -1 -256 -4 -279 -14z m511 -100 c18 -8 38 -23 44
-34 27 -51 1 -144 -43 -156 -12 -3 -119 -6 -239 -6 l-218 0 -24 25 c-20 19
-25 34 -25 77 0 60 18 94 53 101 12 2 111 5 220 6 150 1 206 -2 232 -13z"/>
<path d="M4392 3238 c-17 -17 -15 -42 7 -69 l19 -24 345 0 c325 0 346 1 366
19 23 21 27 56 9 74 -17 17 -729 17 -746 0z"/>
<path d="M5252 3238 c-16 -21 -18 -54 -3 -71 11 -14 36 -17 162 -17 l149 0 0
-150 c0 -141 1 -150 21 -160 16 -9 28 -9 50 0 l29 12 0 149 0 149 149 0 149 0
12 29 c9 22 9 34 0 50 -11 21 -16 21 -359 21 -267 0 -351 -3 -359 -12z"/>
<path d="M4419 3093 c-34 -5 -39 -23 -39 -139 0 -98 12 -124 58 -124 38 0 52
26 52 96 l0 64 308 0 c329 0 332 1 332 50 0 56 9 55 -352 56 -183 1 -345 -1
-359 -3z"/>
</g>
</svg>
